<mxfile host="65bd71144e">
    <diagram id="jhOfiZyNSZWtkdzgF84p" name="第 1 页">
        <mxGraphModel dx="1527" dy="895" grid="1" gridSize="10" guides="1" tooltips="1" connect="1" arrows="1" fold="1" page="1" pageScale="1" pageWidth="827" pageHeight="1169" math="0" shadow="0">
            <root>
                <mxCell id="0"/>
                <mxCell id="1" parent="0"/>
                <mxCell id="42" style="edgeStyle=none;rounded=0;hachureGap=4;orthogonalLoop=1;jettySize=auto;html=1;entryX=0;entryY=0.5;entryDx=0;entryDy=0;fontFamily=Architects Daughter;fontSource=https%3A%2F%2Ffonts.googleapis.com%2Fcss%3Ffamily%3DArchitects%2BDaughter;fontSize=16;endArrow=open;startSize=14;endSize=14;sourcePerimeterSpacing=8;targetPerimeterSpacing=8;exitX=0.5;exitY=0;exitDx=0;exitDy=0;" edge="1" parent="1" source="39" target="40">
                    <mxGeometry relative="1" as="geometry"/>
                </mxCell>
                <mxCell id="69" style="edgeStyle=none;hachureGap=4;orthogonalLoop=1;jettySize=auto;html=1;fontFamily=Helvetica;fontSource=https%3A%2F%2Ffonts.googleapis.com%2Fcss%3Ffamily%3DArchitects%2BDaughter;fontSize=12;fontColor=default;endArrow=open;startSize=14;endSize=14;sourcePerimeterSpacing=8;targetPerimeterSpacing=8;entryX=0;entryY=0.5;entryDx=0;entryDy=0;exitX=0.5;exitY=1;exitDx=0;exitDy=0;" edge="1" parent="1" source="39" target="68">
                    <mxGeometry relative="1" as="geometry"/>
                </mxCell>
                <mxCell id="39" value="个人中心我的企业模块" style="whiteSpace=wrap;html=1;rounded=0;" vertex="1" parent="1">
                    <mxGeometry x="30" y="230" width="140" height="50" as="geometry"/>
                </mxCell>
                <mxCell id="44" style="edgeStyle=none;rounded=0;hachureGap=4;orthogonalLoop=1;jettySize=auto;html=1;entryX=0;entryY=0.5;entryDx=0;entryDy=0;fontFamily=Architects Daughter;fontSource=https%3A%2F%2Ffonts.googleapis.com%2Fcss%3Ffamily%3DArchitects%2BDaughter;fontSize=16;endArrow=open;startSize=14;endSize=14;sourcePerimeterSpacing=8;targetPerimeterSpacing=8;exitX=1;exitY=0.5;exitDx=0;exitDy=0;" edge="1" parent="1" source="40" target="43">
                    <mxGeometry relative="1" as="geometry"/>
                </mxCell>
                <mxCell id="56" style="edgeStyle=none;hachureGap=4;orthogonalLoop=1;jettySize=auto;html=1;fontFamily=Helvetica;fontSource=https%3A%2F%2Ffonts.googleapis.com%2Fcss%3Ffamily%3DArchitects%2BDaughter;fontSize=12;fontColor=default;endArrow=open;startSize=14;endSize=14;sourcePerimeterSpacing=8;targetPerimeterSpacing=8;exitX=1;exitY=0.5;exitDx=0;exitDy=0;entryX=0;entryY=0.5;entryDx=0;entryDy=0;" edge="1" parent="1" source="40" target="55">
                    <mxGeometry relative="1" as="geometry"/>
                </mxCell>
                <mxCell id="65" style="edgeStyle=none;hachureGap=4;orthogonalLoop=1;jettySize=auto;html=1;entryX=0;entryY=0.5;entryDx=0;entryDy=0;fontFamily=Helvetica;fontSource=https%3A%2F%2Ffonts.googleapis.com%2Fcss%3Ffamily%3DArchitects%2BDaughter;fontSize=12;fontColor=default;endArrow=open;startSize=14;endSize=14;sourcePerimeterSpacing=8;targetPerimeterSpacing=8;exitX=1;exitY=0.5;exitDx=0;exitDy=0;" edge="1" parent="1" source="40" target="64">
                    <mxGeometry relative="1" as="geometry"/>
                </mxCell>
                <mxCell id="40" value="绑定企业" style="whiteSpace=wrap;html=1;rounded=0;" vertex="1" parent="1">
                    <mxGeometry x="230" y="130" width="140" height="50" as="geometry"/>
                </mxCell>
                <mxCell id="48" style="edgeStyle=none;hachureGap=4;orthogonalLoop=1;jettySize=auto;html=1;entryX=0;entryY=0.5;entryDx=0;entryDy=0;fontFamily=Helvetica;fontSource=https%3A%2F%2Ffonts.googleapis.com%2Fcss%3Ffamily%3DArchitects%2BDaughter;fontSize=12;fontColor=default;endArrow=open;startSize=14;endSize=14;sourcePerimeterSpacing=8;targetPerimeterSpacing=8;exitX=1;exitY=0.5;exitDx=0;exitDy=0;" edge="1" parent="1" source="43" target="46">
                    <mxGeometry relative="1" as="geometry"/>
                </mxCell>
                <mxCell id="53" style="edgeStyle=none;hachureGap=4;orthogonalLoop=1;jettySize=auto;html=1;entryX=0;entryY=0.5;entryDx=0;entryDy=0;fontFamily=Helvetica;fontSource=https%3A%2F%2Ffonts.googleapis.com%2Fcss%3Ffamily%3DArchitects%2BDaughter;fontSize=12;fontColor=default;endArrow=open;startSize=14;endSize=14;sourcePerimeterSpacing=8;targetPerimeterSpacing=8;exitX=1;exitY=0.5;exitDx=0;exitDy=0;" edge="1" parent="1" source="55" target="52">
                    <mxGeometry relative="1" as="geometry"/>
                </mxCell>
                <mxCell id="43" value="审核中" style="whiteSpace=wrap;html=1;rounded=0;shadow=0;sketch=0;glass=0;" vertex="1" parent="1">
                    <mxGeometry x="460" y="60" width="140" height="50" as="geometry"/>
                </mxCell>
                <mxCell id="46" value="文案：审核中" style="whiteSpace=wrap;html=1;rounded=0;" vertex="1" parent="1">
                    <mxGeometry x="760" y="60" width="140" height="50" as="geometry"/>
                </mxCell>
                <mxCell id="49" value="申请人" style="text;strokeColor=none;fillColor=none;html=1;align=center;verticalAlign=middle;whiteSpace=wrap;rounded=0;shadow=0;glass=0;sketch=0;fontFamily=Helvetica;fontSize=12;fontColor=default;" vertex="1" parent="1">
                    <mxGeometry x="660" y="50" width="60" height="30" as="geometry"/>
                </mxCell>
                <mxCell id="129" style="edgeStyle=none;curved=1;rounded=0;orthogonalLoop=1;jettySize=auto;html=1;entryX=0;entryY=0.5;entryDx=0;entryDy=0;fontSize=12;endArrow=open;startSize=14;endSize=14;" edge="1" parent="1" source="52" target="128">
                    <mxGeometry relative="1" as="geometry"/>
                </mxCell>
                <mxCell id="52" value="文案：审核失败" style="whiteSpace=wrap;html=1;rounded=0;" vertex="1" parent="1">
                    <mxGeometry x="760" y="130" width="140" height="50" as="geometry"/>
                </mxCell>
                <mxCell id="54" value="申请人" style="text;strokeColor=none;fillColor=none;html=1;align=center;verticalAlign=middle;whiteSpace=wrap;rounded=0;shadow=0;glass=0;sketch=0;fontFamily=Helvetica;fontSize=12;fontColor=default;" vertex="1" parent="1">
                    <mxGeometry x="660" y="130" width="60" height="30" as="geometry"/>
                </mxCell>
                <mxCell id="55" value="审核失败" style="whiteSpace=wrap;html=1;rounded=0;shadow=0;sketch=0;glass=0;" vertex="1" parent="1">
                    <mxGeometry x="460" y="130" width="140" height="50" as="geometry"/>
                </mxCell>
                <mxCell id="61" style="edgeStyle=none;hachureGap=4;orthogonalLoop=1;jettySize=auto;html=1;entryX=0;entryY=0.5;entryDx=0;entryDy=0;fontFamily=Helvetica;fontSource=https%3A%2F%2Ffonts.googleapis.com%2Fcss%3Ffamily%3DArchitects%2BDaughter;fontSize=12;fontColor=default;endArrow=open;startSize=14;endSize=14;sourcePerimeterSpacing=8;targetPerimeterSpacing=8;exitX=1;exitY=0.5;exitDx=0;exitDy=0;" edge="1" parent="1" source="64" target="62">
                    <mxGeometry relative="1" as="geometry"/>
                </mxCell>
                <mxCell id="70" style="edgeStyle=none;hachureGap=4;orthogonalLoop=1;jettySize=auto;html=1;entryX=0.5;entryY=0;entryDx=0;entryDy=0;fontFamily=Helvetica;fontSource=https%3A%2F%2Ffonts.googleapis.com%2Fcss%3Ffamily%3DArchitects%2BDaughter;fontSize=12;fontColor=default;endArrow=open;startSize=14;endSize=14;sourcePerimeterSpacing=8;targetPerimeterSpacing=8;exitX=0.5;exitY=1;exitDx=0;exitDy=0;" edge="1" parent="1" source="62" target="68">
                    <mxGeometry relative="1" as="geometry"/>
                </mxCell>
                <mxCell id="62" value="这里直接展示绑定的企业信息了" style="whiteSpace=wrap;html=1;rounded=0;" vertex="1" parent="1">
                    <mxGeometry x="760" y="210" width="200" height="50" as="geometry"/>
                </mxCell>
                <mxCell id="63" value="申请人" style="text;strokeColor=none;fillColor=none;html=1;align=center;verticalAlign=middle;whiteSpace=wrap;rounded=0;shadow=0;glass=0;sketch=0;fontFamily=Helvetica;fontSize=12;fontColor=default;" vertex="1" parent="1">
                    <mxGeometry x="660" y="210" width="60" height="30" as="geometry"/>
                </mxCell>
                <mxCell id="64" value="审核通过" style="whiteSpace=wrap;html=1;rounded=0;shadow=0;sketch=0;glass=0;" vertex="1" parent="1">
                    <mxGeometry x="460" y="210" width="140" height="50" as="geometry"/>
                </mxCell>
                <mxCell id="72" style="edgeStyle=none;hachureGap=4;orthogonalLoop=1;jettySize=auto;html=1;fontFamily=Helvetica;fontSource=https%3A%2F%2Ffonts.googleapis.com%2Fcss%3Ffamily%3DArchitects%2BDaughter;fontSize=12;fontColor=default;endArrow=open;startSize=14;endSize=14;sourcePerimeterSpacing=8;targetPerimeterSpacing=8;entryX=0;entryY=0.5;entryDx=0;entryDy=0;exitX=1;exitY=0.5;exitDx=0;exitDy=0;" edge="1" parent="1" source="68" target="71">
                    <mxGeometry relative="1" as="geometry"/>
                </mxCell>
                <mxCell id="68" value="绑定企业的企业信息" style="whiteSpace=wrap;html=1;rounded=0;shadow=0;glass=0;sketch=0;fontFamily=Helvetica;fontSize=12;fontColor=default;strokeColor=default;fillColor=default;" vertex="1" parent="1">
                    <mxGeometry x="230" y="700" width="140" height="50" as="geometry"/>
                </mxCell>
                <mxCell id="79" style="edgeStyle=none;hachureGap=4;orthogonalLoop=1;jettySize=auto;html=1;entryX=0;entryY=0.5;entryDx=0;entryDy=0;fontFamily=Helvetica;fontSource=https%3A%2F%2Ffonts.googleapis.com%2Fcss%3Ffamily%3DArchitects%2BDaughter;fontSize=12;fontColor=default;endArrow=open;startSize=14;endSize=14;sourcePerimeterSpacing=8;targetPerimeterSpacing=8;exitX=1;exitY=0.5;exitDx=0;exitDy=0;" edge="1" parent="1" source="71" target="77">
                    <mxGeometry relative="1" as="geometry"/>
                </mxCell>
                <mxCell id="86" style="edgeStyle=none;hachureGap=4;orthogonalLoop=1;jettySize=auto;html=1;entryX=0;entryY=0.5;entryDx=0;entryDy=0;fontFamily=Helvetica;fontSource=https%3A%2F%2Ffonts.googleapis.com%2Fcss%3Ffamily%3DArchitects%2BDaughter;fontSize=12;fontColor=default;endArrow=open;startSize=14;endSize=14;sourcePerimeterSpacing=8;targetPerimeterSpacing=8;exitX=1;exitY=0.5;exitDx=0;exitDy=0;" edge="1" parent="1" source="71" target="73">
                    <mxGeometry relative="1" as="geometry">
                        <mxPoint x="660" y="630" as="sourcePoint"/>
                    </mxGeometry>
                </mxCell>
                <mxCell id="112" style="edgeStyle=none;hachureGap=4;orthogonalLoop=1;jettySize=auto;html=1;exitX=1;exitY=0.5;exitDx=0;exitDy=0;entryX=0;entryY=0.5;entryDx=0;entryDy=0;fontFamily=Helvetica;fontSource=https%3A%2F%2Ffonts.googleapis.com%2Fcss%3Ffamily%3DArchitects%2BDaughter;fontSize=12;fontColor=default;endArrow=open;startSize=14;endSize=14;sourcePerimeterSpacing=8;targetPerimeterSpacing=8;" edge="1" parent="1" source="71" target="103">
                    <mxGeometry relative="1" as="geometry"/>
                </mxCell>
                <mxCell id="116" style="edgeStyle=none;hachureGap=4;orthogonalLoop=1;jettySize=auto;html=1;exitX=1;exitY=0.5;exitDx=0;exitDy=0;entryX=0;entryY=0.5;entryDx=0;entryDy=0;fontFamily=Helvetica;fontSource=https%3A%2F%2Ffonts.googleapis.com%2Fcss%3Ffamily%3DArchitects%2BDaughter;fontSize=12;fontColor=default;endArrow=open;startSize=14;endSize=14;sourcePerimeterSpacing=8;targetPerimeterSpacing=8;" edge="1" parent="1" source="71" target="117">
                    <mxGeometry relative="1" as="geometry">
                        <mxPoint x="520" y="1515" as="targetPoint"/>
                    </mxGeometry>
                </mxCell>
                <mxCell id="71" value="企业认证状态" style="whiteSpace=wrap;html=1;rounded=0;shadow=0;glass=0;sketch=0;fontFamily=Helvetica;fontSize=12;fontColor=default;strokeColor=default;fillColor=default;" vertex="1" parent="1">
                    <mxGeometry x="530" y="700" width="140" height="50" as="geometry"/>
                </mxCell>
                <mxCell id="73" value="&lt;span&gt;当前用户申请企业认证&lt;/span&gt;" style="whiteSpace=wrap;html=1;rounded=0;shadow=0;glass=0;sketch=0;fontFamily=Helvetica;fontSize=12;fontColor=default;strokeColor=default;fillColor=default;" vertex="1" parent="1">
                    <mxGeometry x="880" y="850" width="140" height="50" as="geometry"/>
                </mxCell>
                <mxCell id="81" style="edgeStyle=none;hachureGap=4;orthogonalLoop=1;jettySize=auto;html=1;entryX=0;entryY=0.5;entryDx=0;entryDy=0;fontFamily=Helvetica;fontSource=https%3A%2F%2Ffonts.googleapis.com%2Fcss%3Ffamily%3DArchitects%2BDaughter;fontSize=12;fontColor=default;endArrow=open;startSize=14;endSize=14;sourcePerimeterSpacing=8;targetPerimeterSpacing=8;exitX=1;exitY=0.5;exitDx=0;exitDy=0;" edge="1" parent="1" source="77" target="80">
                    <mxGeometry relative="1" as="geometry"/>
                </mxCell>
                <mxCell id="85" style="edgeStyle=none;hachureGap=4;orthogonalLoop=1;jettySize=auto;html=1;exitX=1;exitY=0.5;exitDx=0;exitDy=0;entryX=0;entryY=0.5;entryDx=0;entryDy=0;fontFamily=Helvetica;fontSource=https%3A%2F%2Ffonts.googleapis.com%2Fcss%3Ffamily%3DArchitects%2BDaughter;fontSize=12;fontColor=default;endArrow=open;startSize=14;endSize=14;sourcePerimeterSpacing=8;targetPerimeterSpacing=8;" edge="1" parent="1" source="77" target="83">
                    <mxGeometry relative="1" as="geometry"/>
                </mxCell>
                <mxCell id="77" value="企业未认证" style="whiteSpace=wrap;html=1;rounded=0;shadow=0;glass=0;sketch=0;fontFamily=Helvetica;fontSize=12;fontColor=default;strokeColor=default;fillColor=default;" vertex="1" parent="1">
                    <mxGeometry x="880" y="620" width="140" height="50" as="geometry"/>
                </mxCell>
                <mxCell id="80" value="&lt;span&gt;文案：去认证&lt;/span&gt;" style="whiteSpace=wrap;html=1;rounded=0;shadow=0;glass=0;sketch=0;fontFamily=Helvetica;fontSize=12;fontColor=default;strokeColor=default;fillColor=default;" vertex="1" parent="1">
                    <mxGeometry x="1190" y="530" width="140" height="50" as="geometry"/>
                </mxCell>
                <mxCell id="82" value="&lt;span&gt;当前用户&lt;/span&gt;" style="text;html=1;align=center;verticalAlign=middle;resizable=0;points=[];autosize=1;strokeColor=none;fillColor=none;shadow=0;glass=0;sketch=0;fontFamily=Helvetica;fontSize=12;fontColor=default;" vertex="1" parent="1">
                    <mxGeometry x="1050" y="570" width="60" height="20" as="geometry"/>
                </mxCell>
                <mxCell id="83" value="&lt;span&gt;文案：去认证&lt;/span&gt;" style="whiteSpace=wrap;html=1;rounded=0;shadow=0;glass=0;sketch=0;fontFamily=Helvetica;fontSize=12;fontColor=default;strokeColor=default;fillColor=default;" vertex="1" parent="1">
                    <mxGeometry x="1190" y="680" width="140" height="50" as="geometry"/>
                </mxCell>
                <mxCell id="84" value="&lt;span&gt;其他绑定该企业用户&lt;/span&gt;" style="text;html=1;align=center;verticalAlign=middle;resizable=0;points=[];autosize=1;strokeColor=none;fillColor=none;shadow=0;glass=0;sketch=0;fontFamily=Helvetica;fontSize=12;fontColor=default;" vertex="1" parent="1">
                    <mxGeometry x="1030" y="695" width="120" height="20" as="geometry"/>
                </mxCell>
                <mxCell id="93" style="edgeStyle=none;hachureGap=4;orthogonalLoop=1;jettySize=auto;html=1;entryX=0;entryY=0.5;entryDx=0;entryDy=0;fontFamily=Helvetica;fontSource=https%3A%2F%2Ffonts.googleapis.com%2Fcss%3Ffamily%3DArchitects%2BDaughter;fontSize=12;fontColor=default;endArrow=open;startSize=14;endSize=14;sourcePerimeterSpacing=8;targetPerimeterSpacing=8;exitX=1;exitY=0.5;exitDx=0;exitDy=0;" edge="1" parent="1" target="95" source="73">
                    <mxGeometry relative="1" as="geometry">
                        <mxPoint x="990" y="900" as="sourcePoint"/>
                    </mxGeometry>
                </mxCell>
                <mxCell id="94" style="edgeStyle=none;hachureGap=4;orthogonalLoop=1;jettySize=auto;html=1;exitX=1;exitY=0.5;exitDx=0;exitDy=0;entryX=0;entryY=0.5;entryDx=0;entryDy=0;fontFamily=Helvetica;fontSource=https%3A%2F%2Ffonts.googleapis.com%2Fcss%3Ffamily%3DArchitects%2BDaughter;fontSize=12;fontColor=default;endArrow=open;startSize=14;endSize=14;sourcePerimeterSpacing=8;targetPerimeterSpacing=8;" edge="1" parent="1" target="97" source="73">
                    <mxGeometry relative="1" as="geometry">
                        <mxPoint x="1020" y="905" as="sourcePoint"/>
                    </mxGeometry>
                </mxCell>
                <mxCell id="95" value="&lt;span&gt;文案：审核中&lt;/span&gt;" style="whiteSpace=wrap;html=1;rounded=0;shadow=0;glass=0;sketch=0;fontFamily=Helvetica;fontSize=12;fontColor=default;strokeColor=default;fillColor=default;" vertex="1" parent="1">
                    <mxGeometry x="1190" y="790" width="140" height="50" as="geometry"/>
                </mxCell>
                <mxCell id="96" value="&lt;span&gt;当前用户&lt;/span&gt;" style="text;html=1;align=center;verticalAlign=middle;resizable=0;points=[];autosize=1;strokeColor=none;fillColor=none;shadow=0;glass=0;sketch=0;fontFamily=Helvetica;fontSize=12;fontColor=default;" vertex="1" parent="1">
                    <mxGeometry x="1050" y="830" width="60" height="20" as="geometry"/>
                </mxCell>
                <mxCell id="100" style="edgeStyle=none;hachureGap=4;orthogonalLoop=1;jettySize=auto;html=1;entryX=0;entryY=0.5;entryDx=0;entryDy=0;fontFamily=Helvetica;fontSource=https%3A%2F%2Ffonts.googleapis.com%2Fcss%3Ffamily%3DArchitects%2BDaughter;fontSize=12;fontColor=default;endArrow=open;startSize=14;endSize=14;sourcePerimeterSpacing=8;targetPerimeterSpacing=8;exitX=1;exitY=0.5;exitDx=0;exitDy=0;" edge="1" parent="1" source="97" target="99">
                    <mxGeometry relative="1" as="geometry"/>
                </mxCell>
                <mxCell id="97" value="&lt;span&gt;文案：去认证&lt;/span&gt;" style="whiteSpace=wrap;html=1;rounded=0;shadow=0;glass=0;sketch=0;fontFamily=Helvetica;fontSize=12;fontColor=default;strokeColor=default;fillColor=default;" vertex="1" parent="1">
                    <mxGeometry x="1190" y="940" width="140" height="50" as="geometry"/>
                </mxCell>
                <mxCell id="98" value="&lt;span&gt;其他绑定该企业用户&lt;/span&gt;" style="text;html=1;align=center;verticalAlign=middle;resizable=0;points=[];autosize=1;strokeColor=none;fillColor=none;shadow=0;glass=0;sketch=0;fontFamily=Helvetica;fontSize=12;fontColor=default;" vertex="1" parent="1">
                    <mxGeometry x="1020" y="955" width="120" height="20" as="geometry"/>
                </mxCell>
                <mxCell id="99" value="&lt;span&gt;这里允许其他用户去认证，但是后端会给与提示：当前企业正在认证中&lt;/span&gt;" style="whiteSpace=wrap;html=1;rounded=0;shadow=0;glass=0;sketch=0;fontFamily=Helvetica;fontSize=12;fontColor=default;strokeColor=default;fillColor=default;" vertex="1" parent="1">
                    <mxGeometry x="1410" y="940" width="210" height="50" as="geometry"/>
                </mxCell>
                <mxCell id="103" value="企业认证申请失败" style="whiteSpace=wrap;html=1;rounded=0;shadow=0;glass=0;sketch=0;fontFamily=Helvetica;fontSize=12;fontColor=default;strokeColor=default;fillColor=default;" vertex="1" parent="1">
                    <mxGeometry x="880" y="1110" width="140" height="50" as="geometry"/>
                </mxCell>
                <mxCell id="104" style="edgeStyle=none;hachureGap=4;orthogonalLoop=1;jettySize=auto;html=1;entryX=0;entryY=0.5;entryDx=0;entryDy=0;fontFamily=Helvetica;fontSource=https%3A%2F%2Ffonts.googleapis.com%2Fcss%3Ffamily%3DArchitects%2BDaughter;fontSize=12;fontColor=default;endArrow=open;startSize=14;endSize=14;sourcePerimeterSpacing=8;targetPerimeterSpacing=8;exitX=1;exitY=0.5;exitDx=0;exitDy=0;" edge="1" parent="1" source="103" target="106">
                    <mxGeometry relative="1" as="geometry">
                        <mxPoint x="990" y="1160" as="sourcePoint"/>
                    </mxGeometry>
                </mxCell>
                <mxCell id="105" style="edgeStyle=none;hachureGap=4;orthogonalLoop=1;jettySize=auto;html=1;exitX=1;exitY=0.5;exitDx=0;exitDy=0;entryX=0;entryY=0.5;entryDx=0;entryDy=0;fontFamily=Helvetica;fontSource=https%3A%2F%2Ffonts.googleapis.com%2Fcss%3Ffamily%3DArchitects%2BDaughter;fontSize=12;fontColor=default;endArrow=open;startSize=14;endSize=14;sourcePerimeterSpacing=8;targetPerimeterSpacing=8;" edge="1" parent="1" source="103" target="109">
                    <mxGeometry relative="1" as="geometry">
                        <mxPoint x="1020" y="1165" as="sourcePoint"/>
                    </mxGeometry>
                </mxCell>
                <mxCell id="127" style="edgeStyle=none;hachureGap=4;orthogonalLoop=1;jettySize=auto;html=1;exitX=1;exitY=0.5;exitDx=0;exitDy=0;entryX=0;entryY=0.5;entryDx=0;entryDy=0;fontFamily=Helvetica;fontSource=https%3A%2F%2Ffonts.googleapis.com%2Fcss%3Ffamily%3DArchitects%2BDaughter;fontSize=12;fontColor=default;endArrow=open;startSize=14;endSize=14;sourcePerimeterSpacing=8;targetPerimeterSpacing=8;" edge="1" parent="1" source="106" target="126">
                    <mxGeometry relative="1" as="geometry"/>
                </mxCell>
                <mxCell id="106" value="&lt;span&gt;文案：审核失败&lt;/span&gt;" style="whiteSpace=wrap;html=1;rounded=0;shadow=0;glass=0;sketch=0;fontFamily=Helvetica;fontSize=12;fontColor=default;strokeColor=default;fillColor=default;" vertex="1" parent="1">
                    <mxGeometry x="1190" y="1050" width="140" height="50" as="geometry"/>
                </mxCell>
                <mxCell id="107" value="&lt;span&gt;当前用户&lt;/span&gt;" style="text;html=1;align=center;verticalAlign=middle;resizable=0;points=[];autosize=1;strokeColor=none;fillColor=none;shadow=0;glass=0;sketch=0;fontFamily=Helvetica;fontSize=12;fontColor=default;" vertex="1" parent="1">
                    <mxGeometry x="1050" y="1090" width="60" height="20" as="geometry"/>
                </mxCell>
                <mxCell id="108" style="edgeStyle=none;hachureGap=4;orthogonalLoop=1;jettySize=auto;html=1;entryX=0;entryY=0.5;entryDx=0;entryDy=0;fontFamily=Helvetica;fontSource=https%3A%2F%2Ffonts.googleapis.com%2Fcss%3Ffamily%3DArchitects%2BDaughter;fontSize=12;fontColor=default;endArrow=open;startSize=14;endSize=14;sourcePerimeterSpacing=8;targetPerimeterSpacing=8;exitX=1;exitY=0.5;exitDx=0;exitDy=0;" edge="1" parent="1" source="109" target="111">
                    <mxGeometry relative="1" as="geometry"/>
                </mxCell>
                <mxCell id="109" value="&lt;span&gt;文案：去认证&lt;/span&gt;" style="whiteSpace=wrap;html=1;rounded=0;shadow=0;glass=0;sketch=0;fontFamily=Helvetica;fontSize=12;fontColor=default;strokeColor=default;fillColor=default;" vertex="1" parent="1">
                    <mxGeometry x="1190" y="1200" width="140" height="50" as="geometry"/>
                </mxCell>
                <mxCell id="110" value="&lt;span&gt;其他绑定该企业用户&lt;/span&gt;" style="text;html=1;align=center;verticalAlign=middle;resizable=0;points=[];autosize=1;strokeColor=none;fillColor=none;shadow=0;glass=0;sketch=0;fontFamily=Helvetica;fontSize=12;fontColor=default;" vertex="1" parent="1">
                    <mxGeometry x="1020" y="1200" width="120" height="20" as="geometry"/>
                </mxCell>
                <mxCell id="111" value="&lt;span&gt;这里允许其他用户去认证，因为当前个用户认证失败了&lt;/span&gt;" style="whiteSpace=wrap;html=1;rounded=0;shadow=0;glass=0;sketch=0;fontFamily=Helvetica;fontSize=12;fontColor=default;strokeColor=default;fillColor=default;" vertex="1" parent="1">
                    <mxGeometry x="1410" y="1200" width="210" height="50" as="geometry"/>
                </mxCell>
                <mxCell id="117" value="企业认证申请通过" style="whiteSpace=wrap;html=1;rounded=0;shadow=0;glass=0;sketch=0;fontFamily=Helvetica;fontSize=12;fontColor=default;strokeColor=default;fillColor=default;" vertex="1" parent="1">
                    <mxGeometry x="871" y="1410" width="140" height="50" as="geometry"/>
                </mxCell>
                <mxCell id="118" style="edgeStyle=none;hachureGap=4;orthogonalLoop=1;jettySize=auto;html=1;entryX=0;entryY=0.5;entryDx=0;entryDy=0;fontFamily=Helvetica;fontSource=https%3A%2F%2Ffonts.googleapis.com%2Fcss%3Ffamily%3DArchitects%2BDaughter;fontSize=12;fontColor=default;endArrow=open;startSize=14;endSize=14;sourcePerimeterSpacing=8;targetPerimeterSpacing=8;exitX=1;exitY=0.5;exitDx=0;exitDy=0;" edge="1" parent="1" source="117" target="120">
                    <mxGeometry relative="1" as="geometry">
                        <mxPoint x="981" y="1460" as="sourcePoint"/>
                    </mxGeometry>
                </mxCell>
                <mxCell id="119" style="edgeStyle=none;hachureGap=4;orthogonalLoop=1;jettySize=auto;html=1;exitX=1;exitY=0.5;exitDx=0;exitDy=0;entryX=0;entryY=0.5;entryDx=0;entryDy=0;fontFamily=Helvetica;fontSource=https%3A%2F%2Ffonts.googleapis.com%2Fcss%3Ffamily%3DArchitects%2BDaughter;fontSize=12;fontColor=default;endArrow=open;startSize=14;endSize=14;sourcePerimeterSpacing=8;targetPerimeterSpacing=8;" edge="1" parent="1" source="117" target="123">
                    <mxGeometry relative="1" as="geometry">
                        <mxPoint x="1011" y="1465" as="sourcePoint"/>
                    </mxGeometry>
                </mxCell>
                <mxCell id="120" value="&lt;span&gt;文案：审核通过（认证等级）并且会多一个管理企业的入口&lt;/span&gt;" style="whiteSpace=wrap;html=1;rounded=0;shadow=0;glass=0;sketch=0;fontFamily=Helvetica;fontSize=12;fontColor=default;strokeColor=default;fillColor=default;" vertex="1" parent="1">
                    <mxGeometry x="1181" y="1350" width="140" height="50" as="geometry"/>
                </mxCell>
                <mxCell id="121" value="&lt;span&gt;当前用户&lt;/span&gt;" style="text;html=1;align=center;verticalAlign=middle;resizable=0;points=[];autosize=1;strokeColor=none;fillColor=none;shadow=0;glass=0;sketch=0;fontFamily=Helvetica;fontSize=12;fontColor=default;" vertex="1" parent="1">
                    <mxGeometry x="1060" y="1380" width="60" height="20" as="geometry"/>
                </mxCell>
                <mxCell id="122" style="edgeStyle=none;hachureGap=4;orthogonalLoop=1;jettySize=auto;html=1;entryX=0;entryY=0.5;entryDx=0;entryDy=0;fontFamily=Helvetica;fontSource=https%3A%2F%2Ffonts.googleapis.com%2Fcss%3Ffamily%3DArchitects%2BDaughter;fontSize=12;fontColor=default;endArrow=open;startSize=14;endSize=14;sourcePerimeterSpacing=8;targetPerimeterSpacing=8;exitX=1;exitY=0.5;exitDx=0;exitDy=0;" edge="1" parent="1" source="123" target="125">
                    <mxGeometry relative="1" as="geometry"/>
                </mxCell>
                <mxCell id="123" value="&lt;span&gt;文案：企业已认证（包括企业认证等级）&lt;/span&gt;" style="whiteSpace=wrap;html=1;rounded=0;shadow=0;glass=0;sketch=0;fontFamily=Helvetica;fontSize=12;fontColor=default;strokeColor=default;fillColor=default;" vertex="1" parent="1">
                    <mxGeometry x="1181" y="1500" width="140" height="50" as="geometry"/>
                </mxCell>
                <mxCell id="124" value="&lt;span&gt;其他绑定该企业用户&lt;/span&gt;" style="text;html=1;align=center;verticalAlign=middle;resizable=0;points=[];autosize=1;strokeColor=none;fillColor=none;shadow=0;glass=0;sketch=0;fontFamily=Helvetica;fontSize=12;fontColor=default;" vertex="1" parent="1">
                    <mxGeometry x="1011" y="1500" width="120" height="20" as="geometry"/>
                </mxCell>
                <mxCell id="125" value="而且只有企业管理员才会有管理的入口" style="whiteSpace=wrap;html=1;rounded=0;shadow=0;glass=0;sketch=0;fontFamily=Helvetica;fontSize=12;fontColor=default;strokeColor=default;fillColor=default;" vertex="1" parent="1">
                    <mxGeometry x="1401" y="1500" width="210" height="50" as="geometry"/>
                </mxCell>
                <mxCell id="126" value="&lt;span&gt;文案：重新认证&lt;/span&gt;" style="whiteSpace=wrap;html=1;rounded=0;shadow=0;glass=0;sketch=0;fontFamily=Helvetica;fontSize=12;fontColor=default;strokeColor=default;fillColor=default;" vertex="1" parent="1">
                    <mxGeometry x="1410" y="1050" width="140" height="50" as="geometry"/>
                </mxCell>
                <mxCell id="128" value="文案：重新绑定" style="whiteSpace=wrap;html=1;rounded=0;" vertex="1" parent="1">
                    <mxGeometry x="970" y="130" width="140" height="50" as="geometry"/>
                </mxCell>
            </root>
        </mxGraphModel>
    </diagram>
</mxfile>